<?xml version="1.0" standalone="no"?>
<!DOCTYPE svg PUBLIC "-//W3C//DTD SVG 20010904//EN"
 "http://www.w3.org/TR/2001/REC-SVG-20010904/DTD/svg10.dtd">
<svg version="1.0" xmlns="http://www.w3.org/2000/svg"
 width="512.000000pt" height="512.000000pt" viewBox="0 0 512.000000 512.000000"
 preserveAspectRatio="xMidYMid meet">
<metadata>
Created by potrace 1.14, written by Peter Selinger 2001-2017
</metadata>
<g transform="translate(0.000000,512.000000) scale(0.100000,-0.100000)"
fill="#000000" stroke="none">
<path d="M1646 5101 c-45 -30 -63 -67 -86 -181 -26 -123 -30 -327 -10 -455 46
-300 227 -600 476 -791 l74 -57 -56 -38 -55 -39 -82 54 c-167 111 -314 151
-532 144 -124 -4 -151 -8 -235 -37 -132 -44 -229 -102 -328 -196 -96 -90 -148
-163 -202 -279 -50 -107 -70 -189 -77 -312 -15 -272 79 -510 278 -699 67 -63
168 -132 241 -163 25 -10 26 -14 17 -44 -17 -58 -23 -230 -10 -316 45 -310
252 -575 540 -693 l78 -32 0 -101 c3 -331 200 -641 498 -782 128 -60 190 -75
346 -81 214 -9 359 30 526 139 246 161 393 432 393 726 l0 98 81 33 c254 104
450 329 519 596 28 107 35 268 17 369 l-14 78 36 15 c65 27 175 104 239 166
192 186 284 424 269 691 -7 123 -27 205 -78 314 -51 110 -109 191 -202 279
-93 89 -198 151 -325 193 -86 29 -112 34 -237 38 -218 7 -365 -33 -532 -144
l-82 -54 -63 44 c-85 59 -146 89 -250 121 -102 32 -100 28 -67 145 66 239 231
425 478 537 75 35 215 75 301 88 93 14 140 67 140 157 0 59 -20 99 -66 129
-42 28 -130 24 -265 -10 -322 -81 -585 -254 -741 -489 l-35 -53 -28 78 c-122
344 -386 648 -702 807 -65 32 -144 35 -187 7z m323 -492 c122 -122 214 -268
274 -434 33 -94 76 -315 61 -315 -14 0 -120 86 -179 144 -168 169 -263 379
-281 625 l-7 94 29 -20 c16 -12 62 -54 103 -94z m732 -1195 c107 -25 228 -102
300 -191 88 -110 129 -225 129 -365 0 -159 -52 -282 -169 -399 -117 -117 -240
-169 -401 -169 -161 0 -284 52 -400 169 -128 129 -176 250 -167 426 5 117 22
177 74 263 95 156 251 260 421 280 78 9 122 6 213 -14z m-1114 -9 c42 -15 104
-44 138 -67 l62 -41 -32 -71 c-61 -135 -70 -183 -70 -371 1 -159 3 -175 29
-255 16 -47 39 -106 51 -131 l24 -46 -62 -40 c-98 -64 -166 -85 -289 -91 -96
-4 -116 -2 -190 21 -417 131 -544 647 -234 952 117 116 232 163 399 164 81 1
112 -4 174 -24z m2263 10 c200 -53 367 -226 415 -427 83 -351 -192 -698 -553
-698 -131 0 -221 28 -334 103 l-46 31 23 45 c12 26 35 84 51 131 26 80 28 96
29 255 0 188 -9 236 -70 371 l-32 71 61 41 c96 63 191 91 306 92 52 0 120 -7
150 -15z m-1798 -1279 c75 -52 143 -87 216 -111 47 -15 53 -20 48 -39 -4 -11
-9 -66 -12 -121 -8 -119 6 -218 45 -332 l28 -82 -46 -45 c-226 -221 -593 -213
-810 19 -112 120 -168 271 -157 425 9 135 1 126 119 133 161 9 318 65 452 161
27 20 51 36 52 36 1 0 30 -20 65 -44z m1133 8 c134 -96 291 -152 451 -161
l102 -6 11 -55 c24 -121 10 -222 -50 -350 -30 -66 -54 -99 -111 -157 -118
-117 -244 -169 -408 -168 -150 1 -272 50 -387 157 -136 127 -207 333 -174 508
l13 64 74 13 c136 23 260 73 364 149 30 22 57 41 60 41 3 1 28 -15 55 -35z
m-447 -1089 c88 -52 240 -104 328 -112 l64 -6 0 -69 c0 -249 -184 -481 -429
-543 -238 -60 -487 39 -621 246 -60 94 -82 160 -88 272 l-5 97 39 0 c61 0 198
37 279 74 84 39 152 83 213 138 l43 39 52 -47 c28 -25 84 -65 125 -89z"/>
</g>
</svg>
